<?xml version="1.0" encoding="UTF-8" standalone="no"?>
<!-- Created with Inkscape (http://www.inkscape.org/) -->

<svg
   width="900"
   height="1050"
   viewBox="0 0 238.12499 277.8125"
   version="1.1"
   id="svg1"
   inkscape:version="1.3.2 (091e20e, 2023-11-25, custom)"
   sodipodi:docname="bricks.svg"
   inkscape:export-filename="walls.png"
   inkscape:export-xdpi="96"
   inkscape:export-ydpi="96"
   xmlns:inkscape="http://www.inkscape.org/namespaces/inkscape"
   xmlns:sodipodi="http://sodipodi.sourceforge.net/DTD/sodipodi-0.dtd"
   xmlns="http://www.w3.org/2000/svg"
   xmlns:svg="http://www.w3.org/2000/svg">
  <sodipodi:namedview
     id="namedview1"
     pagecolor="#ffffff"
     bordercolor="#000000"
     borderopacity="0.25"
     inkscape:showpageshadow="2"
     inkscape:pageopacity="0.0"
     inkscape:pagecheckerboard="true"
     inkscape:deskcolor="#d1d1d1"
     inkscape:document-units="mm"
     showgrid="true"
     inkscape:zoom="11.313709"
     inkscape:cx="176.51153"
     inkscape:cy="627.42468"
     inkscape:window-width="1920"
     inkscape:window-height="1001"
     inkscape:window-x="-9"
     inkscape:window-y="-9"
     inkscape:window-maximized="1"
     inkscape:current-layer="g4"
     inkscape:export-bgcolor="#ffffff00"
     showguides="false">
    <inkscape:grid
       id="grid1"
       units="px"
       originx="0"
       originy="0"
       spacingx="13.229166"
       spacingy="13.229166"
       empcolor="#0099e5"
       empopacity="0.30196078"
       color="#0099e5"
       opacity="0.14901961"
       empspacing="5"
       dotted="false"
       gridanglex="30"
       gridanglez="30"
       visible="true" />
  </sodipodi:namedview>
  <defs
     id="defs1">
    <inkscape:path-effect
       effect="fillet_chamfer"
       id="path-effect5"
       is_visible="true"
       lpeversion="1"
       nodesatellites_param="F,0,0,1,0,0,0,1 @ F,0,0,1,0,0,0,1 @ F,0,0,1,0,0,0,1 @ F,0,0,1,0,0,0,1"
       radius="0"
       unit="px"
       method="auto"
       mode="F"
       chamfer_steps="1"
       flexible="false"
       use_knot_distance="true"
       apply_no_radius="true"
       apply_with_radius="true"
       only_selected="false"
       hide_knots="false" />
    <inkscape:path-effect
       effect="fillet_chamfer"
       id="path-effect3"
       is_visible="true"
       lpeversion="1"
       nodesatellites_param="F,0,0,1,0,8.1481915,0,1 @ F,0,0,1,0,5.989328,0,1 @ F,0,0,1,0,5.4796949,0,1 @ F,0,0,1,0,7.4570014,0,1"
       radius="0"
       unit="px"
       method="auto"
       mode="F"
       chamfer_steps="1"
       flexible="false"
       use_knot_distance="true"
       apply_no_radius="true"
       apply_with_radius="true"
       only_selected="false"
       hide_knots="false" />
    <inkscape:path-effect
       effect="fillet_chamfer"
       id="path-effect2"
       is_visible="true"
       lpeversion="1"
       nodesatellites_param="F,0,0,1,0,0,0,1 @ F,0,0,1,0,0,0,1 @ F,0,0,1,0,0,0,1 @ F,0,0,1,0,0,0,1"
       radius="0"
       unit="px"
       method="auto"
       mode="F"
       chamfer_steps="1"
       flexible="false"
       use_knot_distance="true"
       apply_no_radius="true"
       apply_with_radius="true"
       only_selected="false"
       hide_knots="false" />
  </defs>
  <g
     inkscape:label="Layer 1"
     inkscape:groupmode="layer"
     id="layer1"
     style="opacity:1">
    <g
       id="g4"
       transform="matrix(1.0079867,0,0,0.55543344,12.589085,18.291199)">
      <path
         id="rect5"
         style="fill:#b23e08;fill-opacity:1;stroke-width:0.353606"
         d="m 26.66243,14.738498 v 23.697716 h 92.08061 V 14.738498 Z m 71.966531,6.689434 a 2.8505576,4.933897 0 0 1 2.850439,4.933807 2.8505576,4.933897 0 0 1 -2.850439,4.933807 2.8505576,4.933897 0 0 1 -2.850442,-4.933807 2.8505576,4.933897 0 0 1 2.850442,-4.933807 z M 46.44892,21.56842 a 2.9440835,5.0190883 0 0 1 2.94375,5.019401 2.9440835,5.0190883 0 0 1 -2.94375,5.018472 2.9440835,5.0190883 0 0 1 -2.944263,-5.018472 2.9440835,5.0190883 0 0 1 2.944263,-5.019401 z m 26.253819,0.08466 a 2.8505576,4.933897 0 0 1 2.850444,4.934737 2.8505576,4.933897 0 0 1 -2.850444,4.933807 2.8505576,4.933897 0 0 1 -2.850444,-4.933807 2.8505576,4.933897 0 0 1 2.850444,-4.934737 z" />
      <path
         id="path9"
         style="fill:#b23e08;fill-opacity:1;stroke-width:0.353606"
         d="m 158.02494,38.436214 -13.0582,0.02789 0.10836,167.105476 13.0582,-0.0279 z m -3.6014,130.610856 a 5.1731203,2.7187378 89.995362 0 1 -2.71533,5.17871 5.1731203,2.7187378 89.995362 0 1 -2.72205,-5.1671 5.1731203,2.7187378 89.995362 0 1 2.71534,-5.17873 5.1731203,2.7187378 89.995362 0 1 2.72204,5.16712 z m -0.13882,-94.694817 a 5.3428486,2.765681 89.994036 0 1 -2.76239,5.348147 5.3428486,2.765681 89.994036 0 1 -2.7688,-5.336334 5.3428486,2.765681 89.994036 0 1 2.76187,-5.349077 5.3428486,2.765681 89.994036 0 1 2.76932,5.337264 z m -0.0158,47.644837 a 5.1731203,2.7187378 89.995362 0 1 -2.71585,5.17872 5.1731203,2.7187378 89.995362 0 1 -2.72204,-5.16711 5.1731203,2.7187378 89.995362 0 1 2.71533,-5.17871 5.1731203,2.7187378 89.995362 0 1 2.72256,5.1671 z" />
      <rect
         style="fill:#c83737;fill-opacity:1;stroke:none;stroke-width:0.715009;stroke-opacity:1"
         id="rect1"
         width="13.147152"
         height="23.821539"
         x="26.8412"
         y="252.78926" />
      <rect
         style="fill:#1a1a1a;fill-opacity:1;stroke:none;stroke-width:0.524694;stroke-dasharray:none;stroke-opacity:1"
         id="rect19"
         width="10.973971"
         height="0.46314624"
         x="27.92779"
         y="254.59822" />
      <rect
         style="fill:#1a1a1a;fill-opacity:1;stroke:none;stroke-width:0.524694;stroke-dasharray:none;stroke-opacity:1"
         id="rect20"
         width="10.973971"
         height="0.46314624"
         x="27.92779"
         y="274.42929" />
      <rect
         style="fill:#1a1a1a;fill-opacity:1;stroke:none;stroke-width:0.524694;stroke-dasharray:none;stroke-opacity:1"
         id="rect21"
         width="19.915287"
         height="0.25520864"
         x="254.73447"
         y="-28.188229"
         transform="matrix(-1.9045164e-5,1,-1,-6.2730896e-5,0,0)" />
      <rect
         style="fill:#1a1a1a;fill-opacity:1;stroke:none;stroke-width:0.524694;stroke-dasharray:none;stroke-opacity:1"
         id="rect22"
         width="19.915289"
         height="0.25520864"
         x="254.75116"
         y="-38.885483"
         transform="matrix(5.9887786e-5,1,-0.99999998,1.9722455e-4,0,0)" />
      <rect
         style="fill:#1a1a1a;fill-opacity:1;stroke:none;stroke-width:0.570605;stroke-dasharray:none;stroke-opacity:1"
         id="rect23"
         width="16.242016"
         height="0.37008446"
         x="181.71309"
         y="111.57839"
         transform="matrix(0.46853707,0.88344384,-0.49685174,0.86783544,0,0)" />
      <rect
         style="fill:#1a1a1a;fill-opacity:1;stroke:none;stroke-width:0.570592;stroke-dasharray:none;stroke-opacity:1"
         id="rect24"
         width="16.258476"
         height="0.36969337"
         x="113.62387"
         y="-181.3746"
         transform="matrix(-0.46711911,0.8841944,-0.49830441,-0.86700214,0,0)" />
    </g>
    <g
       id="g1"
       transform="matrix(1.0536776,0,0,1.1834375,-48.107687,24.239003)" />
  </g>
</svg>
