<?xml version="1.0" encoding="UTF-8" standalone="no"?>
<!-- Created with Inkscape (http://www.inkscape.org/) -->

<svg
   width="128"
   height="128"
   viewBox="0 0 33.866667 33.866667"
   version="1.1"
   id="svg1"
   inkscape:version="1.3.2 (091e20e, 2023-11-25, custom)"
   inkscape:export-filename="1.png"
   inkscape:export-xdpi="96"
   inkscape:export-ydpi="96"
   sodipodi:docname="icon.svg"
   xmlns:inkscape="http://www.inkscape.org/namespaces/inkscape"
   xmlns:sodipodi="http://sodipodi.sourceforge.net/DTD/sodipodi-0.dtd"
   xmlns="http://www.w3.org/2000/svg"
   xmlns:svg="http://www.w3.org/2000/svg">
  <sodipodi:namedview
     id="namedview1"
     pagecolor="#ffffff"
     bordercolor="#000000"
     borderopacity="0.25"
     inkscape:showpageshadow="2"
     inkscape:pageopacity="0.0"
     inkscape:pagecheckerboard="true"
     inkscape:deskcolor="#d1d1d1"
     inkscape:document-units="px"
     inkscape:lockguides="false"
     showgrid="true"
     inkscape:zoom="3.878125"
     inkscape:cx="95.922643"
     inkscape:cy="81.86946"
     inkscape:window-width="1920"
     inkscape:window-height="1001"
     inkscape:window-x="-9"
     inkscape:window-y="-9"
     inkscape:window-maximized="1"
     inkscape:current-layer="layer1">
    <inkscape:grid
       id="grid1"
       units="px"
       originx="0"
       originy="0"
       spacingx="0.52916667"
       spacingy="0.52916667"
       empcolor="#0099e5"
       empopacity="0.30196078"
       color="#0099e5"
       opacity="0.14901961"
       empspacing="5"
       dotted="false"
       gridanglex="30"
       gridanglez="30"
       visible="true" />
  </sodipodi:namedview>
  <defs
     id="defs1">
    <inkscape:path-effect
       effect="fillet_chamfer"
       id="path-effect18"
       is_visible="true"
       lpeversion="1"
       nodesatellites_param="F,0,0,1,0,0.5,0,1 @ F,0,0,1,0,0.5,0,1 @ F,0,0,1,0,0.5,0,1 @ F,0,0,1,0,0.5,0,1"
       radius="0.5"
       unit="px"
       method="auto"
       mode="F"
       chamfer_steps="1"
       flexible="false"
       use_knot_distance="true"
       apply_no_radius="true"
       apply_with_radius="true"
       only_selected="false"
       hide_knots="false" />
    <inkscape:path-effect
       effect="fillet_chamfer"
       id="path-effect16"
       is_visible="true"
       lpeversion="1"
       nodesatellites_param="F,0,0,1,0,0.2,0,1 @ F,0,0,1,0,0.2,0,1 @ F,0,0,1,0,0.2,0,1 @ F,0,0,1,0,0.2,0,1"
       radius="0.2"
       unit="px"
       method="auto"
       mode="F"
       chamfer_steps="1"
       flexible="false"
       use_knot_distance="true"
       apply_no_radius="true"
       apply_with_radius="true"
       only_selected="false"
       hide_knots="false" />
    <inkscape:path-effect
       effect="fillet_chamfer"
       id="path-effect14"
       is_visible="true"
       lpeversion="1"
       nodesatellites_param="F,0,0,1,0,0.2,0,1 @ F,0,0,1,0,0.2,0,1 @ F,0,0,1,0,0.2,0,1 @ F,0,0,1,0,0.2,0,1"
       radius="0.2"
       unit="px"
       method="auto"
       mode="F"
       chamfer_steps="1"
       flexible="false"
       use_knot_distance="true"
       apply_no_radius="true"
       apply_with_radius="true"
       only_selected="false"
       hide_knots="false" />
    <inkscape:path-effect
       effect="fillet_chamfer"
       id="path-effect12"
       is_visible="true"
       lpeversion="1"
       nodesatellites_param="F,0,0,1,0,0.2,0,1 @ F,0,0,1,0,0.2,0,1 @ F,0,0,1,0,0.2,0,1 @ F,0,0,1,0,0.2,0,1"
       radius="0.2"
       unit="px"
       method="auto"
       mode="F"
       chamfer_steps="1"
       flexible="false"
       use_knot_distance="true"
       apply_no_radius="true"
       apply_with_radius="true"
       only_selected="false"
       hide_knots="false" />
    <inkscape:path-effect
       effect="fillet_chamfer"
       id="path-effect10"
       is_visible="true"
       lpeversion="1"
       nodesatellites_param="F,0,0,1,0,0.2,0,1 @ F,0,0,1,0,0.2,0,1 @ F,0,0,1,0,0.2,0,1 @ F,0,0,1,0,0.2,0,1"
       radius="0.2"
       unit="px"
       method="auto"
       mode="F"
       chamfer_steps="1"
       flexible="false"
       use_knot_distance="true"
       apply_no_radius="true"
       apply_with_radius="true"
       only_selected="false"
       hide_knots="false" />
    <inkscape:path-effect
       effect="fillet_chamfer"
       id="path-effect9"
       is_visible="true"
       lpeversion="1"
       nodesatellites_param="F,0,0,1,0,0.5,0,1 @ F,0,0,1,0,0.5,0,1 @ F,0,0,1,0,0.5,0,1 @ F,0,0,1,0,0.5,0,1"
       radius="0.5"
       unit="px"
       method="auto"
       mode="F"
       chamfer_steps="1"
       flexible="false"
       use_knot_distance="true"
       apply_no_radius="true"
       apply_with_radius="true"
       only_selected="false"
       hide_knots="false" />
    <inkscape:path-effect
       effect="fillet_chamfer"
       id="path-effect8"
       is_visible="true"
       lpeversion="1"
       nodesatellites_param="F,0,0,1,0,0.5,0,1 @ F,0,0,1,0,0.5,0,1 @ F,0,0,1,0,0.5,0,1 @ F,0,0,1,0,0.5,0,1"
       radius="0.5"
       unit="px"
       method="auto"
       mode="F"
       chamfer_steps="1"
       flexible="false"
       use_knot_distance="true"
       apply_no_radius="true"
       apply_with_radius="true"
       only_selected="false"
       hide_knots="false" />
    <inkscape:path-effect
       effect="fillet_chamfer"
       id="path-effect4"
       is_visible="true"
       lpeversion="1"
       nodesatellites_param="F,0,0,1,0,0.5,0,1 @ F,0,0,1,0,0.5,0,1 @ F,0,0,1,0,0.5,0,1 @ F,0,0,1,0,0.5,0,1"
       radius="0.5"
       unit="px"
       method="auto"
       mode="F"
       chamfer_steps="1"
       flexible="false"
       use_knot_distance="true"
       apply_no_radius="true"
       apply_with_radius="true"
       only_selected="false"
       hide_knots="false" />
    <inkscape:path-effect
       effect="fillet_chamfer"
       id="path-effect3"
       is_visible="true"
       lpeversion="1"
       nodesatellites_param="F,0,0,1,0,0.5,0,1 @ F,0,0,1,0,0.5,0,1 @ F,0,0,1,0,0.5,0,1 @ F,0,0,1,0,0.5,0,1"
       radius="0.5"
       unit="px"
       method="auto"
       mode="F"
       chamfer_steps="1"
       flexible="false"
       use_knot_distance="true"
       apply_no_radius="true"
       apply_with_radius="true"
       only_selected="false"
       hide_knots="false" />
    <inkscape:path-effect
       effect="fillet_chamfer"
       id="path-effect2"
       is_visible="true"
       lpeversion="1"
       nodesatellites_param="F,0,0,1,0,0.5,0,1 @ F,0,0,1,0,0.5,0,1 @ F,0,0,1,0,0.5,0,1 @ F,0,0,1,0,0.5,0,1"
       radius="0.5"
       unit="px"
       method="auto"
       mode="IC"
       chamfer_steps="1"
       flexible="false"
       use_knot_distance="true"
       apply_no_radius="true"
       apply_with_radius="true"
       only_selected="false"
       hide_knots="false" />
  </defs>
  <g
     inkscape:label="Layer 1"
     inkscape:groupmode="layer"
     id="layer1">
    <path
       style="fill:#000000;stroke-width:0.423488"
       id="rect1"
       width="16.016357"
       height="4.4865098"
       x="1.5168211"
       y="2.6050704"
       inkscape:path-effect="#path-effect3"
       sodipodi:type="rect"
       d="m 2.0168211,2.6050704 15.0163579,0 a 0.5,0.5 45 0 1 0.5,0.5 v 3.4865098 a 0.5,0.5 135 0 1 -0.5,0.5 H 2.0168211 a 0.5,0.5 45 0 1 -0.5,-0.5 V 3.1050704 a 0.5,0.5 135 0 1 0.5,-0.5 z"
       transform="matrix(1.7392198,0,0,1.7308391,0.36726495,-1.2436925)" />
    <path
       style="fill:#ffffff;stroke-width:0.244849"
       id="rect2"
       width="14.279644"
       height="2.9427645"
       x="2.3851776"
       y="3.3769431"
       inkscape:path-effect="#path-effect2"
       sodipodi:type="rect"
       d="M 2.8851776,3.3769431 H 16.164822 a 0.5,0.5 45 0 1 0.5,0.5 v 1.9427645 a 0.5,0.5 135 0 1 -0.5,0.5 H 2.8851776 a 0.5,0.5 45 0 1 -0.5,-0.5 V 3.8769431 a 0.5,0.5 135 0 1 0.5,-0.5 z"
       transform="matrix(1.7392198,0,0,1.7308391,0.36726495,-1.2436925)" />
    <rect
       style="fill:#000000;stroke-width:0.413308"
       id="rect3"
       width="4.153224"
       height="3.3399684"
       x="14.856725"
       y="10.947197" />
    <path
       style="fill:#000000;stroke-width:0.278336"
       id="rect4"
       width="17.56571"
       height="5.8883324"
       x="0.74214494"
       y="8.9460955"
       inkscape:path-effect="#path-effect4"
       sodipodi:type="rect"
       d="M 1.2421449,8.9460955 H 17.807855 a 0.5,0.5 45 0 1 0.5,0.5 v 4.8883325 a 0.5,0.5 135 0 1 -0.5,0.5 H 1.2421449 a 0.5,0.5 45 0 1 -0.49999996,-0.5 V 9.4460955 a 0.5,0.5 135 0 1 0.49999996,-0.5 z"
       transform="matrix(1.7392198,0,0,1.7308391,0.36726495,-1.2436925)" />
    <ellipse
       style="fill:#000000;stroke-width:0.497031"
       id="path4"
       cx="4.5156121"
       cy="27.644773"
       rx="3.7845454"
       ry="2.8604121" />
    <rect
       style="fill:#000000;stroke-width:0.483461"
       id="rect5"
       width="0.55865431"
       height="2.4203494"
       x="4.2362819"
       y="24.43232" />
    <path
       style="fill:#000000;stroke-width:0.19199"
       id="rect7"
       width="2.3397388"
       height="1.3266557"
       x="5.2825031"
       y="4.383532"
       inkscape:path-effect="#path-effect10"
       sodipodi:type="rect"
       d="M 5.4825031,4.383532 H 7.422242 a 0.2,0.2 45 0 1 0.2,0.2 v 0.9266558 a 0.2,0.2 135 0 1 -0.2,0.2 l -1.9397389,0 a 0.2,0.2 45 0 1 -0.2,-0.2 V 4.583532 a 0.2,0.2 135 0 1 0.2,-0.2 z"
       transform="matrix(1.824398,0,0,1.824398,-0.44405369,-2.0594996)" />
    <path
       style="fill:#00ff00;stroke-width:0.19199"
       id="path10"
       width="2.3397388"
       height="1.3266557"
       x="5.2825031"
       y="4.383532"
       inkscape:path-effect="#path-effect12"
       sodipodi:type="rect"
       d="M 5.4825031,4.383532 H 7.422242 a 0.2,0.2 45 0 1 0.2,0.2 v 0.9266558 a 0.2,0.2 135 0 1 -0.2,0.2 l -1.9397389,0 a 0.2,0.2 45 0 1 -0.2,-0.2 V 4.583532 a 0.2,0.2 135 0 1 0.2,-0.2 z"
       transform="matrix(0.94041132,0,0,0.74822492,5.2597544,3.3717969)" />
    <path
       style="fill:#000000;stroke-width:0.19199"
       id="path12"
       width="2.3397388"
       height="1.3266557"
       x="5.2825031"
       y="4.383532"
       inkscape:path-effect="#path-effect14"
       sodipodi:type="rect"
       d="M 5.4825031,4.383532 H 7.422242 a 0.2,0.2 45 0 1 0.2,0.2 v 0.9266558 a 0.2,0.2 135 0 1 -0.2,0.2 l -1.9397389,0 a 0.2,0.2 45 0 1 -0.2,-0.2 V 4.583532 a 0.2,0.2 135 0 1 0.2,-0.2 z"
       transform="matrix(2.5579188,0,0,2.5579188,6.6569373,-5.7614748)" />
    <path
       style="fill:#00ff00;stroke-width:0.19199"
       id="path13"
       width="2.3397388"
       height="1.3266557"
       x="5.2825031"
       y="4.383532"
       inkscape:path-effect="#path-effect16"
       sodipodi:type="rect"
       d="M 5.4825031,4.383532 H 7.422242 a 0.2,0.2 45 0 1 0.2,0.2 v 0.9266558 a 0.2,0.2 135 0 1 -0.2,0.2 l -1.9397389,0 a 0.2,0.2 45 0 1 -0.2,-0.2 V 4.583532 a 0.2,0.2 135 0 1 0.2,-0.2 z"
       transform="matrix(1.6382544,0,0,1.1485701,12.590958,1.3513113)" />
    <ellipse
       style="fill:#008080;stroke-width:0.0413628"
       id="path16"
       cx="4.5156121"
       cy="27.644773"
       rx="2.5557513"
       ry="1.826263" />
    <ellipse
       style="fill:#000000;stroke-width:0.497031"
       id="ellipse16"
       cx="29.351049"
       cy="27.644773"
       rx="3.7845454"
       ry="2.8604121" />
    <rect
       style="fill:#000000;stroke-width:0.483461"
       id="rect17"
       width="0.55865431"
       height="2.4203494"
       x="29.071718"
       y="24.43232" />
    <ellipse
       style="fill:#008080;stroke-width:0.0413628"
       id="ellipse17"
       cx="29.351049"
       cy="27.644773"
       rx="2.5557513"
       ry="1.826263" />
    <path
       style="fill:#00ffff;stroke-width:0.278336"
       id="path17"
       width="17.56571"
       height="5.8883324"
       x="0.74214494"
       y="8.9460955"
       inkscape:path-effect="#path-effect18"
       sodipodi:type="rect"
       d="M 1.2421449,8.9460955 H 17.807855 a 0.5,0.5 45 0 1 0.5,0.5 v 4.8883325 a 0.5,0.5 135 0 1 -0.5,0.5 H 1.2421449 a 0.5,0.5 45 0 1 -0.49999996,-0.5 V 9.4460955 a 0.5,0.5 135 0 1 0.49999996,-0.5 z"
       transform="matrix(1.5470158,0,0,1.1790125,2.1980084,5.3409759)" />
  </g>
</svg>
