<?xml version="1.0" encoding="UTF-8" standalone="no"?>
<!-- Created with Inkscape (http://www.inkscape.org/) -->

<svg
   width="1280"
   height="720"
   viewBox="0 0 338.66667 190.5"
   version="1.1"
   id="svg1"
   inkscape:version="1.3.2 (091e20e, 2023-11-25, custom)"
   inkscape:export-filename="1.png"
   inkscape:export-xdpi="96"
   inkscape:export-ydpi="96"
   sodipodi:docname="character_idle.svg"
   xmlns:inkscape="http://www.inkscape.org/namespaces/inkscape"
   xmlns:sodipodi="http://sodipodi.sourceforge.net/DTD/sodipodi-0.dtd"
   xmlns="http://www.w3.org/2000/svg"
   xmlns:svg="http://www.w3.org/2000/svg">
  <sodipodi:namedview
     id="namedview1"
     pagecolor="#ffffff"
     bordercolor="#000000"
     borderopacity="0.25"
     inkscape:showpageshadow="2"
     inkscape:pageopacity="0.0"
     inkscape:pagecheckerboard="true"
     inkscape:deskcolor="#d1d1d1"
     inkscape:document-units="px"
     inkscape:lockguides="false"
     showgrid="true"
     inkscape:zoom="0.96953125"
     inkscape:cx="708.07413"
     inkscape:cy="287.76793"
     inkscape:window-width="1350"
     inkscape:window-height="860"
     inkscape:window-x="135"
     inkscape:window-y="55"
     inkscape:window-maximized="0"
     inkscape:current-layer="layer1">
    <inkscape:grid
       id="grid1"
       units="px"
       originx="0"
       originy="0"
       spacingx="0.52916667"
       spacingy="0.52916667"
       empcolor="#0099e5"
       empopacity="0.30196078"
       color="#0099e5"
       opacity="0.14901961"
       empspacing="5"
       dotted="false"
       gridanglex="30"
       gridanglez="30"
       visible="true" />
  </sodipodi:namedview>
  <defs
     id="defs1">
    <inkscape:path-effect
       effect="fillet_chamfer"
       id="path-effect11"
       is_visible="true"
       lpeversion="1"
       nodesatellites_param="F,0,0,1,0,0.2,0,1 @ F,0,0,1,0,0.2,0,1 @ F,0,0,1,0,0.2,0,1 @ F,0,0,1,0,0.2,0,1"
       radius="0.2"
       unit="px"
       method="auto"
       mode="F"
       chamfer_steps="1"
       flexible="false"
       use_knot_distance="true"
       apply_no_radius="true"
       apply_with_radius="true"
       only_selected="false"
       hide_knots="false" />
    <inkscape:path-effect
       effect="fillet_chamfer"
       id="path-effect6"
       is_visible="true"
       lpeversion="1"
       nodesatellites_param="F,0,0,1,0,0.2,0,1 @ F,0,0,1,0,0.2,0,1 @ F,0,0,1,0,0.2,0,1 @ F,0,0,1,0,0.2,0,1"
       radius="0.2"
       unit="px"
       method="auto"
       mode="F"
       chamfer_steps="1"
       flexible="false"
       use_knot_distance="true"
       apply_no_radius="true"
       apply_with_radius="true"
       only_selected="false"
       hide_knots="false" />
    <inkscape:path-effect
       effect="fillet_chamfer"
       id="path-effect18"
       is_visible="true"
       lpeversion="1"
       nodesatellites_param="F,0,0,1,0,0.5,0,1 @ F,0,0,1,0,0.5,0,1 @ F,0,0,1,0,0.5,0,1 @ F,0,0,1,0,0.5,0,1"
       radius="0.5"
       unit="px"
       method="auto"
       mode="F"
       chamfer_steps="1"
       flexible="false"
       use_knot_distance="true"
       apply_no_radius="true"
       apply_with_radius="true"
       only_selected="false"
       hide_knots="false" />
    <inkscape:path-effect
       effect="fillet_chamfer"
       id="path-effect16"
       is_visible="true"
       lpeversion="1"
       nodesatellites_param="F,0,0,1,0,0.2,0,1 @ F,0,0,1,0,0.2,0,1 @ F,0,0,1,0,0.2,0,1 @ F,0,0,1,0,0.2,0,1"
       radius="0.2"
       unit="px"
       method="auto"
       mode="F"
       chamfer_steps="1"
       flexible="false"
       use_knot_distance="true"
       apply_no_radius="true"
       apply_with_radius="true"
       only_selected="false"
       hide_knots="false" />
    <inkscape:path-effect
       effect="fillet_chamfer"
       id="path-effect14"
       is_visible="true"
       lpeversion="1"
       nodesatellites_param="F,0,0,1,0,0.2,0,1 @ F,0,0,1,0,0.2,0,1 @ F,0,0,1,0,0.2,0,1 @ F,0,0,1,0,0.2,0,1"
       radius="0.2"
       unit="px"
       method="auto"
       mode="F"
       chamfer_steps="1"
       flexible="false"
       use_knot_distance="true"
       apply_no_radius="true"
       apply_with_radius="true"
       only_selected="false"
       hide_knots="false" />
    <inkscape:path-effect
       effect="fillet_chamfer"
       id="path-effect12"
       is_visible="true"
       lpeversion="1"
       nodesatellites_param="F,0,0,1,0,0.2,0,1 @ F,0,0,1,0,0.2,0,1 @ F,0,0,1,0,0.2,0,1 @ F,0,0,1,0,0.2,0,1"
       radius="0.2"
       unit="px"
       method="auto"
       mode="F"
       chamfer_steps="1"
       flexible="false"
       use_knot_distance="true"
       apply_no_radius="true"
       apply_with_radius="true"
       only_selected="false"
       hide_knots="false" />
    <inkscape:path-effect
       effect="fillet_chamfer"
       id="path-effect10"
       is_visible="true"
       lpeversion="1"
       nodesatellites_param="F,0,0,1,0,0.2,0,1 @ F,0,0,1,0,0.2,0,1 @ F,0,0,1,0,0.2,0,1 @ F,0,0,1,0,0.2,0,1"
       radius="0.2"
       unit="px"
       method="auto"
       mode="F"
       chamfer_steps="1"
       flexible="false"
       use_knot_distance="true"
       apply_no_radius="true"
       apply_with_radius="true"
       only_selected="false"
       hide_knots="false" />
    <inkscape:path-effect
       effect="fillet_chamfer"
       id="path-effect9"
       is_visible="true"
       lpeversion="1"
       nodesatellites_param="F,0,0,1,0,0.5,0,1 @ F,0,0,1,0,0.5,0,1 @ F,0,0,1,0,0.5,0,1 @ F,0,0,1,0,0.5,0,1"
       radius="0.5"
       unit="px"
       method="auto"
       mode="F"
       chamfer_steps="1"
       flexible="false"
       use_knot_distance="true"
       apply_no_radius="true"
       apply_with_radius="true"
       only_selected="false"
       hide_knots="false" />
    <inkscape:path-effect
       effect="fillet_chamfer"
       id="path-effect8"
       is_visible="true"
       lpeversion="1"
       nodesatellites_param="F,0,0,1,0,0.5,0,1 @ F,0,0,1,0,0.5,0,1 @ F,0,0,1,0,0.5,0,1 @ F,0,0,1,0,0.5,0,1"
       radius="0.5"
       unit="px"
       method="auto"
       mode="F"
       chamfer_steps="1"
       flexible="false"
       use_knot_distance="true"
       apply_no_radius="true"
       apply_with_radius="true"
       only_selected="false"
       hide_knots="false" />
    <inkscape:path-effect
       effect="fillet_chamfer"
       id="path-effect4"
       is_visible="true"
       lpeversion="1"
       nodesatellites_param="F,0,0,1,0,0.5,0,1 @ F,0,0,1,0,0.5,0,1 @ F,0,0,1,0,0.5,0,1 @ F,0,0,1,0,0.5,0,1"
       radius="0.5"
       unit="px"
       method="auto"
       mode="F"
       chamfer_steps="1"
       flexible="false"
       use_knot_distance="true"
       apply_no_radius="true"
       apply_with_radius="true"
       only_selected="false"
       hide_knots="false" />
    <inkscape:path-effect
       effect="fillet_chamfer"
       id="path-effect3"
       is_visible="true"
       lpeversion="1"
       nodesatellites_param="F,0,0,1,0,0.5,0,1 @ F,0,0,1,0,0.5,0,1 @ F,0,0,1,0,0.5,0,1 @ F,0,0,1,0,0.5,0,1"
       radius="0.5"
       unit="px"
       method="auto"
       mode="F"
       chamfer_steps="1"
       flexible="false"
       use_knot_distance="true"
       apply_no_radius="true"
       apply_with_radius="true"
       only_selected="false"
       hide_knots="false" />
    <inkscape:path-effect
       effect="fillet_chamfer"
       id="path-effect2"
       is_visible="true"
       lpeversion="1"
       nodesatellites_param="F,0,0,1,0,0.5,0,1 @ F,0,0,1,0,0.5,0,1 @ F,0,0,1,0,0.5,0,1 @ F,0,0,1,0,0.5,0,1"
       radius="0.5"
       unit="px"
       method="auto"
       mode="IC"
       chamfer_steps="1"
       flexible="false"
       use_knot_distance="true"
       apply_no_radius="true"
       apply_with_radius="true"
       only_selected="false"
       hide_knots="false" />
  </defs>
  <g
     inkscape:label="Layer 1"
     inkscape:groupmode="layer"
     id="layer1">
    <path
       style="fill:#000000;stroke-width:0.423488"
       id="rect1"
       width="16.016357"
       height="4.4865098"
       x="1.5168211"
       y="2.6050704"
       inkscape:path-effect="#path-effect3"
       sodipodi:type="rect"
       d="m 2.0168211,2.6050704 15.0163579,0 a 0.5,0.5 45 0 1 0.5,0.5 v 3.4865098 a 0.5,0.5 135 0 1 -0.5,0.5 H 2.0168211 a 0.5,0.5 45 0 1 -0.5,-0.5 V 3.1050704 a 0.5,0.5 135 0 1 0.5,-0.5 z"
       transform="matrix(11.142631,0,0,11.088939,63.199774,-21.156632)" />
    <path
       style="fill:#ffffff;stroke-width:0.244849"
       id="rect2"
       width="14.279644"
       height="2.9427645"
       x="2.3851776"
       y="3.3769431"
       inkscape:path-effect="#path-effect2"
       sodipodi:type="rect"
       d="M 2.8851776,3.3769431 H 16.164822 a 0.5,0.5 45 0 1 0.5,0.5 v 1.9427645 a 0.5,0.5 135 0 1 -0.5,0.5 H 2.8851776 a 0.5,0.5 45 0 1 -0.5,-0.5 V 3.8769431 a 0.5,0.5 135 0 1 0.5,-0.5 z"
       transform="matrix(11.142631,0,0,11.088939,63.199774,-21.123373)" />
    <rect
       style="fill:#000000;stroke-width:2.64793"
       id="rect3"
       width="26.608393"
       height="21.398121"
       x="156.02914"
       y="56.946507" />
    <path
       style="fill:#000000;stroke-width:0.278336"
       id="rect4"
       width="17.56571"
       height="5.8883324"
       x="0.74214494"
       y="8.9460955"
       inkscape:path-effect="#path-effect4"
       sodipodi:type="rect"
       d="M 1.2421449,8.9460955 H 17.807855 a 0.5,0.5 45 0 1 0.5,0.5 v 4.8883325 a 0.5,0.5 135 0 1 -0.5,0.5 H 1.2421449 a 0.5,0.5 45 0 1 -0.49999996,-0.5 V 9.4460955 a 0.5,0.5 135 0 1 0.49999996,-0.5 z"
       transform="matrix(11.142631,0,0,11.088939,63.199774,-21.156632)" />
    <ellipse
       style="fill:#000000;stroke-width:3.18432"
       id="path4"
       cx="89.776932"
       cy="163.92265"
       rx="24.246384"
       ry="18.325756" />
    <rect
       style="fill:#000000;stroke-width:3.09738"
       id="rect5"
       width="3.5791216"
       height="15.506413"
       x="87.987373"
       y="143.34142" />
    <path
       style="fill:#000000;stroke-width:0.19199"
       id="path12"
       width="2.3397388"
       height="1.3266557"
       x="5.2825031"
       y="4.383532"
       inkscape:path-effect="#path-effect14"
       sodipodi:type="rect"
       d="M 5.4825031,4.383532 H 7.422242 a 0.2,0.2 45 0 1 0.2,0.2 v 0.9266558 a 0.2,0.2 135 0 1 -0.2,0.2 l -1.9397389,0 a 0.2,0.2 45 0 1 -0.2,-0.2 V 4.583532 a 0.2,0.2 135 0 1 0.2,-0.2 z"
       transform="matrix(16.387777,0,0,16.387777,103.49572,-50.100665)" />
    <path
       style="fill:#00ff00;stroke-width:0.19199"
       id="path13"
       width="2.3397388"
       height="1.3266557"
       x="5.2825031"
       y="4.383532"
       inkscape:path-effect="#path-effect16"
       sodipodi:type="rect"
       d="M 5.4825031,4.383532 H 7.422242 a 0.2,0.2 45 0 1 0.2,0.2 v 0.9266558 a 0.2,0.2 135 0 1 -0.2,0.2 l -1.9397389,0 a 0.2,0.2 45 0 1 -0.2,-0.2 V 4.583532 a 0.2,0.2 135 0 1 0.2,-0.2 z"
       transform="matrix(10.495778,0,0,7.3585252,141.5131,-4.5312985)" />
    <ellipse
       style="fill:#008080;stroke-width:0.264999"
       id="path16"
       cx="89.776932"
       cy="163.92265"
       rx="16.373892"
       ry="11.70029" />
    <ellipse
       style="fill:#000000;stroke-width:3.18432"
       id="ellipse16"
       cx="248.88972"
       cy="163.92265"
       rx="24.246384"
       ry="18.325756" />
    <rect
       style="fill:#000000;stroke-width:3.09738"
       id="rect17"
       width="3.5791216"
       height="15.506413"
       x="247.10016"
       y="143.34142" />
    <ellipse
       style="fill:#008080;stroke-width:0.264999"
       id="ellipse17"
       cx="248.88972"
       cy="163.92265"
       rx="16.373892"
       ry="11.70029" />
    <path
       style="fill:#00ffff;stroke-width:0.278336"
       id="path17"
       width="17.56571"
       height="5.8883324"
       x="0.74214494"
       y="8.9460955"
       inkscape:path-effect="#path-effect18"
       sodipodi:type="rect"
       d="M 1.2421449,8.9460955 H 17.807855 a 0.5,0.5 45 0 1 0.5,0.5 v 4.8883325 a 0.5,0.5 135 0 1 -0.5,0.5 H 1.2421449 a 0.5,0.5 45 0 1 -0.49999996,-0.5 V 9.4460955 a 0.5,0.5 135 0 1 0.49999996,-0.5 z"
       transform="matrix(9.9112414,0,0,7.55356,74.92876,21.029216)" />
    <path
       style="fill:#000000;stroke-width:0.19199"
       id="path1"
       width="2.3397388"
       height="1.3266557"
       x="5.2825031"
       y="4.383532"
       inkscape:path-effect="#path-effect6"
       sodipodi:type="rect"
       d="M 5.4825031,4.383532 H 7.422242 a 0.2,0.2 45 0 1 0.2,0.2 v 0.9266558 a 0.2,0.2 135 0 1 -0.2,0.2 l -1.9397389,0 a 0.2,0.2 45 0 1 -0.2,-0.2 V 4.583532 a 0.2,0.2 135 0 1 0.2,-0.2 z"
       transform="matrix(16.387777,0,0,16.387777,23.72452,-49.844396)" />
    <path
       style="fill:#00ff00;stroke-width:0.19199"
       id="path2"
       width="2.3397388"
       height="1.3266557"
       x="5.2825031"
       y="4.383532"
       inkscape:path-effect="#path-effect11"
       sodipodi:type="rect"
       d="M 5.4825031,4.383532 H 7.422242 a 0.2,0.2 45 0 1 0.2,0.2 v 0.9266558 a 0.2,0.2 135 0 1 -0.2,0.2 l -1.9397389,0 a 0.2,0.2 45 0 1 -0.2,-0.2 V 4.583532 a 0.2,0.2 135 0 1 0.2,-0.2 z"
       transform="matrix(10.495778,0,0,7.3585252,62.270851,-4.27503)" />
  </g>
</svg>
